<?xml version="1.0" standalone="no"?><!DOCTYPE svg PUBLIC "-//W3C//DTD SVG 1.1//EN" "http://www.w3.org/Graphics/SVG/1.1/DTD/svg11.dtd"><svg t="1758079941633" class="icon" viewBox="0 0 1024 1024" version="1.1" xmlns="http://www.w3.org/2000/svg" p-id="4850" xmlns:xlink="http://www.w3.org/1999/xlink" width="200" height="200"><path d="M853.248 64H170.5984v565.0432h682.6496V64z" fill="#FFD54F" p-id="4851"></path><path d="M853.248 618.6496H170.5984v167.3216h682.6496v-167.3216z" fill="#E0E0E0" p-id="4852"></path><path d="M853.248 768H170.5984v170.6496h682.6496V768z" fill="#BF360C" p-id="4853"></path><path d="M448 618.6496h128L512 682.6496l-64-64z" fill="#F44336" p-id="4854"></path><path d="M512 661.3504l-64 85.3504 64 128 64-128L512 661.3504z" fill="#F44336" p-id="4855"></path><path d="M682.752 486.5024c0-33.0752-25.4976-59.8528-56.9344-59.8528H398.336c-31.4368 0-56.8832 26.7776-56.8832 59.904 0 4.9664 0.768 9.728 1.8432 14.336 6.656 36.608 53.7088 75.4176 111.9232 75.4176h113.8176c56.8832 0 104.96-36.7616 111.9232-75.4176 1.0752-4.608 1.8432-9.3696 1.8432-14.336z" fill="#3E2723" p-id="4856"></path><path d="M384 618.6496l64 64 64-64H384zM512 618.6496l64 64 64-64H512zM394.752 384a117.3504 117.3504 0 1 0 0-234.6496 117.3504 117.3504 0 0 0 0 234.6496z" fill="#FFFFFF" p-id="4857"></path><path d="M629.3504 384a117.3504 117.3504 0 1 0 0-234.6496 117.3504 117.3504 0 0 0 0 234.6496z" fill="#FFFFFF" p-id="4858"></path><path d="M394.752 320a53.3504 53.3504 0 1 0 0-106.6496 53.3504 53.3504 0 0 0 0 106.6496z" fill="#0288D1" p-id="4859"></path><path d="M544 512a32.1024 32.1024 0 0 0-32 32.1536 32.1024 32.1024 0 0 0-32-32.1536 32.1024 32.1024 0 0 0-32 32.1536v32.1536h128v-32.1536a32.1024 32.1024 0 0 0-32-32.1536z" fill="#FF1744" p-id="4860"></path><path d="M789.4016 832h-128v42.6496h128v-42.6496zM362.5984 832h-128v42.6496h128v-42.6496z" fill="#1A1A1A" p-id="4861"></path><path d="M234.1888 181.3504c0-44.4416-26.624-81.92-63.5904-96v192c36.9664-14.08 63.5904-51.5584 63.5904-96zM806.1952 522.8544c0 29.5424 21.0944 53.4528 47.104 53.4528V469.3504c-26.0096 0-47.104 23.9104-47.104 53.504zM512.0512 256a42.6496 42.6496 0 0 0-42.6496 42.6496V384h85.3504V298.6496A42.6496 42.6496 0 0 0 512 256z" fill="#FFAB40" p-id="4862"></path><path d="M394.6496 277.3504a10.6496 10.6496 0 1 0 0-21.3504 10.6496 10.6496 0 0 0 0 21.3504z" fill="#1A1A1A" p-id="4863"></path><path d="M629.3504 320a53.3504 53.3504 0 1 0 0-106.6496 53.3504 53.3504 0 0 0 0 106.6496z" fill="#0288D1" p-id="4864"></path><path d="M629.248 277.3504a10.6496 10.6496 0 1 0 0-21.3504 10.6496 10.6496 0 0 0 0 21.3504z" fill="#1A1A1A" p-id="4865"></path><path d="M778.5984 170.6496a32 32 0 1 0 0-64 32 32 0 0 0 0 64z" fill="#FFAB40" p-id="4866"></path><path d="M768.0512 469.3504a42.6496 42.6496 0 1 0 0-85.3504 42.6496 42.6496 0 0 0 0 85.3504zM256.0512 469.3504a42.6496 42.6496 0 1 0 0-85.3504 42.6496 42.6496 0 0 0 0 85.3504z" fill="#FFF59D" p-id="4867"></path><path d="M490.6496 426.6496H448v42.6496h42.6496v-42.6496zM576.0512 426.6496h-42.6496v42.6496h42.6496v-42.6496z" fill="#FFFFFF" p-id="4868"></path></svg>