<svg width="520" height="400" viewBox="0 0 520 400" xmlns="http://www.w3.org/2000/svg">
  <defs>
    <linearGradient id="frame" x1="0%" y1="0%" x2="100%" y2="100%">
      <stop offset="0%" stop-color="#a855f7" />
      <stop offset="50%" stop-color="#f43f5e" />
      <stop offset="100%" stop-color="#22d3ee" />
    </linearGradient>
  </defs>
  <rect x="30" y="40" width="460" height="320" rx="36" stroke="url(#frame)" stroke-width="14" fill="rgba(17,24,39,0.55)" />
  <g fill="#fef9c3" opacity="0.85">
    <path d="M90 70 L100 105 L135 115 L100 125 L90 160 L80 125 L45 115 L80 105 Z" />
    <path d="M420 80 L432 108 L460 120 L432 132 L420 160 L408 132 L380 120 L408 108 Z" />
    <path d="M150 280 L158 300 L176 308 L158 316 L150 336 L142 316 L124 308 L142 300 Z" />
    <path d="M360 300 L368 320 L388 328 L368 336 L360 356 L352 336 L332 328 L352 320 Z" />
  </g>
  <text x="260" y="210" text-anchor="middle" font-size="46" font-family="'Bricolage Grotesque',sans-serif" fill="#f8fafc">
    Glow Loop
  </text>
  <text x="260" y="248" text-anchor="middle" font-size="22" font-family="'Space Grotesk',sans-serif" fill="rgba(226,232,240,0.85)">
    drop meme, add sparkle
  </text>
</svg>
