<svg width="800" height="600" viewBox="0 0 800 600" xmlns="http://www.w3.org/2000/svg">
  <defs>
    <radialGradient id="night" cx="50%" cy="50%" r="70%">
      <stop offset="0%" stop-color="#312e81" />
      <stop offset="60%" stop-color="#1e1b4b" />
      <stop offset="100%" stop-color="#09090b" />
    </radialGradient>
    <linearGradient id="beam" x1="0%" y1="0%" x2="100%" y2="100%">
      <stop offset="0%" stop-color="rgba(236,72,153,0.85)" />
      <stop offset="50%" stop-color="rgba(129,140,248,0.6)" />
      <stop offset="100%" stop-color="rgba(14,165,233,0.85)" />
    </linearGradient>
  </defs>
  <rect width="800" height="600" fill="url(#night)" />
  <path d="M-100 0 L300 0 L600 600 L200 600 Z" fill="rgba(59,130,246,0.2)" />
  <path d="M500 -50 L900 -50 L700 600 L300 600 Z" fill="rgba(236,72,153,0.25)" />
  <circle cx="560" cy="160" r="120" fill="rgba(236,72,153,0.45)" />
  <circle cx="220" cy="140" r="90" fill="rgba(94,234,212,0.35)" />
  <g transform="translate(220,170)">
    <rect x="0" y="60" width="150" height="220" rx="32" fill="#facc15" stroke="#fbbf24" stroke-width="6" opacity="0.92" />
    <rect x="210" y="60" width="150" height="220" rx="32" fill="#fde68a" stroke="#facc15" stroke-width="6" opacity="0.92" />
    <circle cx="75" cy="110" r="14" fill="#0f172a" />
    <circle cx="285" cy="110" r="14" fill="#0f172a" />
    <rect x="55" y="190" width="40" height="20" rx="8" fill="#fb7185" />
    <rect x="265" y="190" width="40" height="20" rx="8" fill="#f472b6" />
    <path d="M70 150 Q90 175 110 150" stroke="#fecaca" stroke-width="10" stroke-linecap="round" fill="none" />
    <path d="M280 150 Q300 175 320 150" stroke="#f472b6" stroke-width="10" stroke-linecap="round" fill="none" />
  </g>
  <text x="400" y="470" text-anchor="middle" font-family="'Bricolage Grotesque','Arial Black',sans-serif" font-size="56" fill="#fdf2f8" stroke="#111827" stroke-width="3" paint-order="stroke">
    Neon Brainrot ⚡
  </text>
  <text x="400" y="512" text-anchor="middle" font-family="'Space Grotesk',sans-serif" font-size="22" fill="rgba(226,232,240,0.75)">
    Glitch halos • synth bass • TOTR midnight loop
  </text>
</svg>
